<?xml version="1.0" encoding="UTF-8"?>
<!DOCTYPE svg PUBLIC "-//W3C//DTD SVG 1.1//EN" "http://www.w3.org/Graphics/SVG/1.1/DTD/svg11.dtd">
<svg version="1.1" width="1024" height="1024" xmlns="http://www.w3.org/2000/svg">
	<!-- ********************************************************************* -->
	<!-- SHIP IDLE -->

	<!-- Main ship outline -->
	<path d="M0,0 L300,212 L300,300 L0,512 L60,352 L0,256 L60,160 Z" stroke="#2E2E2E" fill="#2E2E2E" />

	<!-- Wing traces -->
	<path d="M0,0 L280,198 L220,180 Z" stroke="white" fill="gray" />
	<path d="M0,512 L280,314 L220,332 Z" stroke="white" fill="gray" />

	<!-- Thrusters -->
	<path d="M0,0 L60,160 L68,148 Z" stroke="red" fill="red" />
	<path d="M0,512 L60,352 L68,364 Z" stroke="red" fill="red" />

	<!-- Fuselage -->
	<path d="M100,160 L220,256 L100,352 Z" stroke="#AAC" fill="gray" />
	<path d="M110,170 Q160,256 110,342 Q140,256 110,170" stroke="blue" fill="blue" />
	<path d="M130,190 Q180,256 130,322 Q160,256 130,190" stroke="blue" fill="blue" />
	<path d="M152,210 Q200,256 152,302 Q176,256 152,210" stroke="blue" fill="blue" />

	<!-- Nose shape -->
	<path d="M300,212 Q370,256 300,300" stroke="blue" fill="#1E1E1E" />
	<!-- ********************************************************************* -->

	<!-- ********************************************************************* -->
	<!-- SHIP ACTIVE -->

	<!-- Main ship outline -->
	<path d="M512,0 L812,212 L812,300 L512,512 L572,352 L512,256 L572,160 Z" stroke="#2E2E2E" fill="#2E2E2E" />

	<!-- Wing traces -->
	<path d="M512,0 L792,198 L732,180 Z" stroke="white" fill="gray" />
	<path d="M512,512 L792,314 L732,332 Z" stroke="white" fill="gray" />

	<!-- Thrusters -->
	<path d="M512,0 L572,160 L522,88 Z" stroke="#77BBEE" fill="#77BBEE" />
	<path d="M512,512 L572,352 L522,424 Z" stroke="#77BBEE" fill="#77BBEE" />

	<!-- Fuselage -->
	<path d="M612,160 L732,256 L612,352 Z" stroke="#AAC" fill="gray" />
	<path d="M622,170 Q672,256 622,342 Q652,256 622,170" stroke="blue" fill="blue" />
	<path d="M642,190 Q692,256 642,322 Q672,256 642,190" stroke="blue" fill="blue" />
	<path d="M664,210 Q712,256 664,302 Q688,256 664,210" stroke="blue" fill="blue" />

	<!-- Nose shape -->
	<path d="M812,212 Q882,256 812,300" stroke="blue" fill="#1E1E1E" />
	<!-- ********************************************************************* -->
</svg>
