<?xml version="1.0" encoding="UTF-8"?>
<!DOCTYPE svg PUBLIC "-//W3C//DTD SVG 1.1//EN" "http://www.w3.org/Graphics/SVG/1.1/DTD/svg11.dtd">
<svg version="1.1" width="512" height="512" xmlns="http://www.w3.org/2000/svg">
  <defs>
		<linearGradient id="gradient">
			<stop offset="0%" stop-color="#2A3F00" />
			<stop offset="100%" stop-color="#400" />
		</linearGradient>
	</defs>

  <!-- Main ship outline -->
	<path d="M0,0 L362,256 L0,512 L60,352 L0,256 L60,160 Z" stroke="black" fill="#002929" />

	<!-- Wing traces -->
	<path d="M0,0 L280,198 L220,180 Z" stroke="#400" fill="url(#gradient)" />
	<path d="M0,512 L280,314 L220,332 Z" stroke="#400" fill="url(#gradient)" />

	<!-- Thrusters -->
	<path d="M0,0 L60,160 L68,148 Z" stroke="#2A3F00" fill="#2A3F00" />
	<path d="M0,512 L60,352 L68,364 Z" stroke="#2A3F00" fill="#2A3F00" />

	<!-- Fuselage -->
	<path d="M100,160 L220,256 L100,352 Z" stroke="#400" fill="url(#gradient)" />
	<path d="M166,213 L166,299 L100,256 Z" stroke="#400" fill="#400" />

  <!-- Lightning -->
	<path d="M100,120 L160,168 L150,180 L220,216 L160,168 L170,156 Z" stroke="#400" fill="#400" />
	<path d="M100,392 L160,344 L150,332 L220,296 L160,344 L170,356 Z" stroke="#400" fill="#400" />

	<!-- Nose shape -->
	<path d="M300,210 C382,230 382,284 300,302" stroke="#400" fill="#002929" />
</svg>
