<?xml version="1.0" encoding="UTF-8"?>
<!DOCTYPE svg PUBLIC "-//W3C//DTD SVG 1.1//EN" "http://www.w3.org/Graphics/SVG/1.1/DTD/svg11.dtd">
<svg version="1.1" width="1024" height="512" xmlns="http://www.w3.org/2000/svg">
	<!-- ********************************************************************* -->
	<!-- SHIP IDLE -->

	<!-- Main ship outline -->
	<path d="M0,0 L362,256 L0,512 L60,352 L0,256 L60,160 Z" stroke="black" fill="#2E2E2E" />

	<!-- Wing traces -->
	<path d="M0,0 L280,198 L220,180 Z" stroke="white" fill="gray" />
	<path d="M0,512 L280,314 L220,332 Z" stroke="white" fill="gray" />

	<!-- Thrusters -->
	<path d="M0,0 L60,160 L68,148 Z" stroke="red" fill="red" />
	<path d="M0,512 L60,352 L68,364 Z" stroke="red" fill="red" />

	<!-- Fuselage -->
	<path d="M100,160 L220,256 L220,256 L100,352 Z" stroke="blue" fill="blue" />

	<!-- Nose shape -->
	<path d="M300,210 C382,230 382,284 300,302" stroke="blue" fill="#2E2E2E" />
	<!-- ********************************************************************* -->

	<!-- ********************************************************************* -->
	<!-- SHIP ACTIVE -->

	<!-- Main ship outline -->
	<path d="M512,0 L874,256 L512,512 L572,352 L512,256 L572,160 Z" stroke="black" fill="#2E2E2E" />

	<!-- Wing traces -->
	<path d="M512,0 L792,198 L732,180 Z" stroke="white" fill="gray" />
	<path d="M512,512 L792,314 L732,332 Z" stroke="white" fill="gray" />

	<!-- Thrusters -->
	<path d="M512,0 L572,160 L522,88 Z" stroke="#77BBEE" fill="#77BBEE" />
	<path d="M512,512 L572,352 L522,424 Z" stroke="#77BBEE" fill="#77BBEE" />

	<!-- Fuselage -->
	<path d="M612,160 L732,256 L732,256 L612,352 Z" stroke="blue" fill="blue" />

	<!-- Nose shape -->
	<path d="M812,210 C894,230 894,284 812,302" stroke="blue" fill="#2E2E2E" />

	<!-- ********************************************************************* -->
</svg>
